<svg width="359" height="121" viewBox="0 0 359 121" fill="none" xmlns="http://www.w3.org/2000/svg">
<g clip-path="url(#clip0_142_1933)">
<path d="M67.8268 51.9348C67.8268 51.9348 72.1644 44.1155 73.9361 41.7261C83.6076 28.6413 104.867 26.0749 119.532 32.9713C136.196 40.8032 136.807 59.8742 121.379 69.2991C117.407 71.7264 108.921 74.0779 104.312 74.356C95.5867 74.8744 86.1926 72.5103 78.0657 69.5519C80.5561 92.6369 107.679 95.2539 123.725 83.389C130.093 78.6797 133.277 72.6051 138.32 66.7264V30.8663H151.762V48.2559C159.984 39.4695 170.059 29.8929 182.769 29.1343C184.295 29.0458 185.272 29.4441 186.615 29.5326C187.119 29.5642 187.63 29.6527 188.191 29.7538C188.677 29.8423 188.582 29.8549 188.941 29.975C196.406 32.4529 199.748 35.4618 202.995 42.7565C210.863 60.4494 206.532 82.8327 207.686 101.733H194.244C193.456 88.3195 195.511 73.4964 193.752 60.2788C189.383 27.4402 164.145 44.1851 151.756 60.658V101.733H138.314V82.1753C137.274 81.9478 137.614 82.3523 137.343 82.7442C126.53 98.5914 110.264 105.216 91.1292 100.576C72.2716 95.9998 64.1448 81.9857 64.5861 63.2497C64.6176 61.8148 64.8887 60.5632 66.3325 55.3483M99.628 40.5377C93.8718 41.2204 87.7877 44.8867 84.1372 49.3495C82.7438 51.0499 78.4188 58.1169 79.5662 59.9943C80.0013 60.7023 85.5495 62.5354 86.7032 62.8389C96.1982 65.3041 115.087 65.8414 118.687 54.0018C122.13 42.6743 107.799 39.5643 99.628 40.5377Z" fill="white"/>
<path d="M286.161 0V53.0284C288.487 51.5935 289.906 48.4898 291.81 46.3026C303.386 33.0092 322.388 25.0951 340.01 29.2481C350.974 31.8335 359 41.7387 359 53.2433V101.708H345.993V88.231L337.286 94.0654C328.094 99.685 318.069 102.624 307.427 99.2994C289.585 93.7241 287.327 69.8996 303.373 60.5C316.102 53.041 332.848 56.2079 345.993 60.8477V54.5454C345.993 46.9158 339.285 40.6515 331.896 39.9878C316.077 38.5781 301.021 50.1206 291.816 61.9475C291.091 62.8768 286.167 69.691 286.167 70.1904V101.708H272.726V84.7544C271.206 85.8985 270.204 87.5862 268.829 88.8884C241.807 114.489 208.795 99.6534 212.086 61.9918C214.81 30.8157 250.709 18.8814 272.726 39.9815V0H286.167H286.161ZM247.923 40.9928C229.223 42.6237 221.354 63.0348 228.296 79.0969C233.749 91.7077 247.834 92.6053 258.54 85.9807C261.547 84.1222 272.108 75.0513 272.707 71.9287C273.192 69.3876 273.116 55.146 272.738 52.3583C272.663 51.8084 272.675 51.5366 272.316 51.0435C271.786 50.3166 267.556 47.1307 266.528 46.4164C260.847 42.4657 254.915 40.3797 247.916 40.9928H247.923ZM345.93 70.045C336 66.8212 321.052 63.4836 311.513 69.1031C304.892 73.0033 303.909 81.7518 310.296 86.4295C318.151 92.1817 330.912 87.9718 338.629 83.6861C340.067 82.8896 344.512 80.2221 345.375 79.1475C346.718 77.4724 345.71 72.3206 345.93 70.045Z" fill="white"/>
<path d="M221.152 121.006C221.838 121.006 222.394 120.449 222.394 119.761C222.394 119.073 221.838 118.516 221.152 118.516C220.466 118.516 219.91 119.073 219.91 119.761C219.91 120.449 220.466 121.006 221.152 121.006Z" fill="white"/>
<path d="M130.515 118.667V120.842C127.508 121.209 127.564 118.282 130.515 118.667Z" fill="white"/>
<path d="M69.8884 39.3494L17.9056 91.9037H69.8947V102.245H0V93.3449L51.9891 40.7907H2.14993V30.4492H69.8947V39.3494H69.8884Z" fill="white"/>
<path d="M78.0594 69.5519L12.1746 66.0626L11.6198 56.8843L79.5663 59.9943" fill="white"/>
</g>
<defs>
<clipPath id="clip0_142_1933">
<rect width="359" height="121" fill="white"/>
</clipPath>
</defs>
</svg>
