<svg width="28" height="28" viewBox="0 0 28 28" fill="none" xmlns="http://www.w3.org/2000/svg">
<path fill-rule="evenodd" clip-rule="evenodd" d="M18.6666 14.0002C18.6666 15.2378 18.1749 16.4248 17.2998 17.3C16.4246 18.1752 15.2376 18.6668 13.9999 18.6668C12.7622 18.6668 11.5753 18.1752 10.7001 17.3C9.82492 16.4248 9.33325 15.2378 9.33325 14.0002C9.33325 12.7625 9.82492 11.5755 10.7001 10.7003C11.5753 9.82516 12.7622 9.3335 13.9999 9.3335C15.2376 9.3335 16.4246 9.82516 17.2998 10.7003C18.1749 11.5755 18.6666 12.7625 18.6666 14.0002ZM16.3333 14.0002C16.3333 14.619 16.0874 15.2125 15.6498 15.6501C15.2122 16.0877 14.6188 16.3335 13.9999 16.3335C13.3811 16.3335 12.7876 16.0877 12.35 15.6501C11.9124 15.2125 11.6666 14.619 11.6666 14.0002C11.6666 13.3813 11.9124 12.7878 12.35 12.3502C12.7876 11.9127 13.3811 11.6668 13.9999 11.6668C14.6188 11.6668 15.2122 11.9127 15.6498 12.3502C16.0874 12.7878 16.3333 13.3813 16.3333 14.0002Z" fill="white"/>
<path fill-rule="evenodd" clip-rule="evenodd" d="M13.9999 3.5C20.5239 3.5 26.0049 7.96133 27.5589 14C26.0049 20.0387 20.5239 24.5 13.9999 24.5C7.47592 24.5 1.99492 20.0387 0.440918 14C1.99492 7.96133 7.47592 3.5 13.9999 3.5ZM13.9999 22.1667C8.77792 22.1667 4.35275 18.7343 2.86642 14C4.35275 9.26567 8.77792 5.83333 13.9999 5.83333C19.2219 5.83333 23.6471 9.26567 25.1334 14C23.6471 18.7343 19.2219 22.1667 13.9999 22.1667Z" fill="white"/>
</svg>
