<svg width="28" height="28" viewBox="0 0 28 28" fill="none" xmlns="http://www.w3.org/2000/svg">
<path d="M13.9999 25.6668C7.55642 25.6668 2.33325 20.4437 2.33325 14.0002C2.33325 7.55666 7.55642 2.3335 13.9999 2.3335C20.4434 2.3335 25.6666 7.55666 25.6666 14.0002C25.6666 20.4437 20.4434 25.6668 13.9999 25.6668ZM13.9999 23.3335C16.4753 23.3335 18.8492 22.3502 20.5996 20.5998C22.3499 18.8495 23.3333 16.4755 23.3333 14.0002C23.3333 11.5248 22.3499 9.15084 20.5996 7.4005C18.8492 5.65016 16.4753 4.66683 13.9999 4.66683C11.5246 4.66683 9.1506 5.65016 7.40026 7.4005C5.64992 9.15084 4.66659 11.5248 4.66659 14.0002C4.66659 16.4755 5.64992 18.8495 7.40026 20.5998C9.1506 22.3502 11.5246 23.3335 13.9999 23.3335ZM12.8333 8.16683H15.1666V10.5002H12.8333V8.16683ZM12.8333 12.8335H15.1666V19.8335H12.8333V12.8335Z" fill="white"/>
</svg>
