<svg width="20" height="20" viewBox="0 0 20 20" fill="none" xmlns="http://www.w3.org/2000/svg">
<path fill-rule="evenodd" clip-rule="evenodd" d="M14.8214 0C14.5846 0 14.3575 0.0940686 14.1901 0.261512C14.0226 0.428955 13.9286 0.656057 13.9286 0.892857C13.9286 1.12966 14.0226 1.35676 14.1901 1.5242C14.3575 1.69165 14.5846 1.78571 14.8214 1.78571H17.78C18.02 1.78571 18.2143 1.98 18.2143 2.22V5.17857C18.2143 5.41537 18.3084 5.64247 18.4758 5.80992C18.6432 5.97736 18.8703 6.07143 19.1071 6.07143C19.3439 6.07143 19.571 5.97736 19.7385 5.80992C19.9059 5.64247 20 5.41537 20 5.17857V2.22C20 0.994286 19.0057 0 17.78 0H14.8214ZM0.892857 13.9286C1.38571 13.9286 1.78571 14.3286 1.78571 14.8214V17.78C1.78571 18.02 1.98 18.2143 2.22 18.2143H5.17857C5.41537 18.2143 5.64247 18.3084 5.80992 18.4758C5.97736 18.6432 6.07143 18.8703 6.07143 19.1071C6.07143 19.3439 5.97736 19.571 5.80992 19.7385C5.64247 19.9059 5.41537 20 5.17857 20H2.22C1.63122 20 1.06655 19.7661 0.650223 19.3498C0.233892 18.9334 0 18.3688 0 17.78L0 14.8214C0 14.3286 0.4 13.9286 0.892857 13.9286ZM19.1071 13.9286C19.6 13.9286 20 14.3286 20 14.8214V17.78C20 19.0057 19.0057 20 17.78 20H14.8214C14.5846 20 14.3575 19.9059 14.1901 19.7385C14.0226 19.571 13.9286 19.3439 13.9286 19.1071C13.9286 18.8703 14.0226 18.6432 14.1901 18.4758C14.3575 18.3084 14.5846 18.2143 14.8214 18.2143H17.78C17.8952 18.2143 18.0056 18.1685 18.0871 18.0871C18.1685 18.0056 18.2143 17.8952 18.2143 17.78V14.8214C18.2143 14.3286 18.6143 13.9286 19.1071 13.9286ZM2.22 1.78571C2.10482 1.78571 1.99436 1.83147 1.91291 1.91291C1.83147 1.99436 1.78571 2.10482 1.78571 2.22V5.17857C1.78571 5.41537 1.69165 5.64247 1.5242 5.80992C1.35676 5.97736 1.12966 6.07143 0.892857 6.07143C0.656057 6.07143 0.428955 5.97736 0.261512 5.80992C0.0940686 5.64247 0 5.41537 0 5.17857L0 2.22C0 0.994286 0.994286 0 2.22 0H5.17857C5.41537 0 5.64247 0.0940686 5.80992 0.261512C5.97736 0.428955 6.07143 0.656057 6.07143 0.892857C6.07143 1.12966 5.97736 1.35676 5.80992 1.5242C5.64247 1.69165 5.41537 1.78571 5.17857 1.78571H2.22ZM1.25 8.75C0.918479 8.75 0.600537 8.8817 0.366117 9.11612C0.131696 9.35054 0 9.66848 0 10C0 10.3315 0.131696 10.6495 0.366117 10.8839C0.600537 11.1183 0.918479 11.25 1.25 11.25H18.75C19.0815 11.25 19.3995 11.1183 19.6339 10.8839C19.8683 10.6495 20 10.3315 20 10C20 9.66848 19.8683 9.35054 19.6339 9.11612C19.3995 8.8817 19.0815 8.75 18.75 8.75H1.25Z" fill="white"/>
</svg>
